<svg xmlns="http://www.w3.org/2000/svg" data-name="V1 LOGO" viewBox="0 0 277.95 205.62">
  <defs>
    <filter
      id="a"
      width="181.05"
      height="122.15"
      x="55.67"
      y="41.74"
      color-interpolation-filters="sRGB"
      filterUnits="userSpaceOnUse"
    >
      <feFlood flood-color="#fff" result="bg" />
      <feBlend in="SourceGraphic" in2="bg" />
    </filter>
    <mask id="b" width="181.05" height="122.15" x="55.67" y="41.74" maskUnits="userSpaceOnUse">
      <g filter="url(#a)">
        <path
          d="M148.9 79.64c-5.83-.23-11.4 2.75-15.68 8.41a37.22 37.22 0 0 0-6.92 20.8c-.66 16.58 8.4 30.45 20.2 30.92h.62c11.54 0 21.33-12.94 22-29.23.64-16.54-8.42-30.44-20.22-30.9Zm16.94 30.78c-.57 14.54-8.92 26.1-18.71 26.1h-.5c-6.67-.27-12.3-5.86-15.13-13.93a7.2 7.2 0 0 0 4.44 1.84c5.19.2 9.64-5.68 9.94-13.15s-3.67-13.69-8.88-13.9a7.91 7.91 0 0 0-6.11 2.86A30.31 30.31 0 0 1 135.82 90c3.49-4.62 7.9-7.14 12.46-7.14h.49c10.01.43 17.66 12.78 17.07 27.56ZM217.11 96.2c-2.65-4.14-6.32-6.51-10.37-6.67s-7.89 1.91-10.85 5.83a27.31 27.31 0 0 0-1.17 29.14c2.65 4.14 6.32 6.51 10.37 6.68h.42c8 0 14.77-9 15.23-20.23a25.89 25.89 0 0 0-3.63-14.75Zm1.37 14.65c-.41 10.24-6.37 18.33-13.31 18.07-3.28-.13-6.31-2.13-8.55-5.64a20.3 20.3 0 0 1-2.12-4.59 5.76 5.76 0 0 0 4.18 2.26c3.87.16 7.19-4.23 7.41-9.8s-2.73-10.19-6.6-10.35a6.22 6.22 0 0 0-5.18 2.89 20.75 20.75 0 0 1 3.38-7c2.42-3.2 5.46-5 8.62-5h.34c3.28.13 6.31 2.13 8.55 5.64a23.48 23.48 0 0 1 3.28 13.52Z"
        />
      </g>
    </mask>
  </defs>
  <path
    d="M52.6 77.31A35.72 35.72 0 0 0 46.18 82c-3 2.79-5 5.91-5 10.48v21.31c0 3.58 2.05 2.9 2.54 2.9s5.13-2.14 6.59-2.14a5.88 5.88 0 0 1 2.24.35Z"
  />
  <g mask="url(#b)">
    <path
      d="M55.67 62.67v66.53c0 10.22 13.47 18.39 20.23 23.38s14 9.14 20 11.31c-8.68-4.58-17-11-17-24.15V79.62c0-15-.5-21.41 12.26-25.64s38.48 1.81 80.22 9.75 54.54 7.16 57.83 21.27c-3-4.37-13.77-5.72-22.8-7.4S118.15 60 105.29 61.47 93.35 75.08 93.35 86v52.64c0 8.84 3.54 12.72 8.68 16.56s20.13 6 31.13 4.6 84.15-10.28 92.59-11.52 11-11.22 11-33.41V78.41c0-5.33-.65-9.84-21.15-14.38s-105-22.29-119.62-22.29-20.27 3.17-29.25 8.83-11.06 8.36-11.06 12.1Z"
    />
  </g>
</svg>
